<svg width="100" height="100" viewBox="0 0 100 100" fill="none" xmlns="http://www.w3.org/2000/svg">
<rect width="100" height="100" rx="15" fill="black"/>
<rect x="30.4946" y="22.4473" width="9.90189" height="15.7811" rx="4.33208" fill="black" stroke="white" stroke-width="1.54717"/>
<rect x="34.2075" y="24.3037" width="6.49811" height="13.3057" rx="3.24906" fill="white"/>
<path d="M36.9922 34.5147V28.0166L43.0261 34.5147H36.9922Z" fill="black" stroke="black" stroke-width="0.309434"/>
<path d="M35.7549 30.4922H61.7473C64.3108 30.4922 66.3888 32.5703 66.3888 35.1337V50.296H35.7549V30.4922Z" fill="white"/>
<rect x="11.3096" y="34.5146" width="49.8189" height="34.0377" fill="white"/>
<path d="M24.4604 46.8919L11.1548 36.3711V63.9108L24.4604 46.8919Z" fill="black"/>
<path d="M11.1548 66.2322V68.3982L57.8793 67.9341L43.4906 50.2963L34.2076 54.4737L25.8529 47.9756L11.1548 66.2322Z" fill="black"/>
<path d="M46.8945 51.3795L59.8908 34.9795V68.2436L46.8945 51.3795Z" fill="black"/>
<path d="M33.7433 51.5339L11.9282 34.3604H57.415L33.7433 51.5339Z" fill="black"/>
<path d="M30.0303 62.21V56.7949H36.0642C36.0642 56.7949 38.385 56.7949 38.385 59.5798C38.385 61.9167 36.2008 62.1841 35.9357 62.208C35.918 62.2095 35.9006 62.21 35.8828 62.21H30.0303Z" stroke="white" stroke-width="1.54717"/>
<path d="M11.9283 34.2051H30.4943H62.6755C63.1882 34.2051 63.6038 34.6207 63.6038 35.1334V67.1679C63.6038 67.6774 63.1931 68.0917 62.6837 68.0962L11.9365 68.544C11.4206 68.5485 11 68.1316 11 67.6157V35.1334C11 34.6207 11.4156 34.2051 11.9283 34.2051Z" stroke="white" stroke-width="1.54717"/>
<path d="M79.6944 36.0622C74.3283 34.1974 64.2227 36.681 64.2227 36.681L64.5321 66.6961C64.5321 66.6961 76.5045 69.2478 82.7887 65.6132C86.3391 63.5598 88.9234 61.8934 90.6793 58.1868C93.1129 53.0494 92.7223 48.7359 89.9057 43.798C87.3304 39.2833 84.6039 37.7685 79.6944 36.0622Z" fill="black"/>
<path d="M76.7549 68.2431C78.8882 68.2431 81.0007 67.8109 82.9717 66.9712C84.9427 66.1314 86.7335 64.9006 88.242 63.349C89.7505 61.7974 90.9472 59.9554 91.7636 57.9281C92.58 55.9008 93.0002 53.728 93.0002 51.5337C93.0002 49.3393 92.58 47.1665 91.7636 45.1392C90.9472 43.1119 89.7506 41.2699 88.242 39.7183C86.7335 38.1667 84.9427 36.9359 82.9717 36.0961C81.0007 35.2564 78.8882 34.8242 76.7549 34.8242V36.6808C78.6523 36.6808 80.5311 37.0566 82.2841 37.8035C84.0371 38.5503 85.6299 39.645 86.9716 41.025C88.3133 42.405 89.3775 44.0434 90.1037 45.8464C90.8298 47.6495 91.2035 49.582 91.2035 51.5337C91.2035 53.4853 90.8298 55.4178 90.1037 57.2209C89.3775 59.0239 88.3133 60.6623 86.9716 62.0423C85.6299 63.4223 84.0371 64.517 82.2841 65.2638C80.5311 66.0107 78.6523 66.3865 76.7549 66.3865V68.2431Z" fill="white"/>
<path d="M63.9131 35.7529H76.7546M63.9131 67.3152H76.7546" stroke="white" stroke-width="1.8566"/>
<rect x="59.8906" y="34.2051" width="3.09434" height="34.0377" fill="white"/>
<rect x="61.7471" y="35.7529" width="4.64151" height="30.9434" fill="white"/>
<path d="M40.0864 30.9568H43.4902C43.4902 30.9568 42.8537 28.7412 42.2525 27.3983C41.6002 25.9414 40.2411 23.8398 40.2411 23.8398L40.0864 30.9568Z" fill="white"/>
<path d="M33.5364 46.8918L25.853 38.5371L33.5364 43.8631L40.7722 38.5371L33.5364 46.8918Z" fill="white"/>
<path d="M75.053 51.9977L71.1851 45.9638L76.6002 50.4505L84.1813 43.4883L78.4568 51.9977L83.7171 60.5071L76.6002 53.6996L71.1851 58.6505L75.053 51.9977Z" fill="white"/>
<path d="M31.2681 35.1338V32.9678H34.2077V35.1338H31.2681Z" fill="black"/>
</svg>
